<?xml version="1.0" standalone="no"?>
<!DOCTYPE svg PUBLIC "-//W3C//DTD SVG 20010904//EN"
 "http://www.w3.org/TR/2001/REC-SVG-20010904/DTD/svg10.dtd">
<svg version="1.0" xmlns="http://www.w3.org/2000/svg"
 width="562.000000pt" height="137.000000pt" viewBox="0 0 562.000000 137.000000"
 preserveAspectRatio="xMidYMid meet">

<g transform="translate(0.000000,137.000000) scale(0.100000,-0.100000)"
fill="#000000" stroke="none">
<path d="M274 1316 c-17 -8 -40 -26 -52 -41 -21 -27 -22 -37 -22 -272 0 -216
2 -244 16 -250 9 -3 24 -2 33 4 14 9 17 43 21 242 4 191 8 233 20 242 9 5 100
8 223 7 l209 -3 24 -28 c22 -26 24 -37 24 -132 0 -97 2 -105 26 -134 26 -31
27 -31 124 -31 116 0 143 -8 170 -52 19 -31 20 -51 20 -389 0 -344 -1 -356
-20 -377 -21 -22 -23 -22 -398 -22 -326 0 -381 2 -400 16 -12 8 -22 24 -22 34
0 26 -36 45 -56 29 -27 -22 -17 -78 20 -115 l34 -34 413 0 c392 0 416 1 446
20 21 13 35 31 42 57 7 24 11 189 11 443 0 373 -2 408 -19 445 -11 24 -77 97
-167 186 -117 115 -158 149 -189 158 -60 16 -491 14 -531 -3z"/>
<path d="M4875 1073 c-48 -9 -99 -40 -121 -72 -13 -19 -21 -38 -18 -43 7 -12
54 -10 54 2 0 20 65 50 107 50 61 0 103 -38 103 -94 0 -49 -9 -63 -111 -177
-145 -163 -191 -239 -158 -260 16 -10 309 -12 333 -3 9 3 16 14 16 24 0 23
-37 30 -167 30 -125 0 -125 -9 11 149 122 141 136 165 136 233 0 41 -6 64 -23
88 -34 52 -106 84 -162 73z"/>
<path d="M5365 1065 c-43 -15 -109 -79 -102 -98 7 -23 38 -18 73 12 40 35 95
41 143 16 33 -17 41 -33 41 -83 0 -46 -19 -77 -109 -177 -121 -133 -162 -194
-159 -229 l3 -31 170 0 c169 0 170 0 173 23 4 24 0 25 -93 27 -139 3 -165 5
-165 18 0 7 32 48 71 92 158 178 188 235 168 317 -8 34 -22 57 -50 83 -21 19
-45 35 -53 35 -7 0 -26 2 -42 5 -16 3 -47 -2 -69 -10z"/>
<path d="M1619 1064 c0 -5 0 -137 1 -294 1 -203 5 -287 13 -293 17 -11 142 -1
202 17 63 19 119 66 145 118 43 89 48 222 13 310 -20 49 -90 111 -144 127 -53
16 -229 27 -230 15z m229 -73 c75 -38 101 -93 102 -218 0 -144 -51 -213 -179
-242 -83 -18 -81 -23 -81 186 0 106 -5 204 -12 230 -10 41 -9 47 8 60 25 19
111 10 162 -16z"/>
<path d="M3518 1063 c-2 -4 -1 -138 2 -298 l5 -290 25 0 25 0 3 135 c1 74 7
139 11 143 8 8 122 11 233 8 l27 -1 3 -142 3 -143 30 0 30 0 3 298 2 298 -32
-3 -33 -3 -3 -123 -3 -123 -132 3 -132 3 -1 120 -1 120 -31 3 c-16 2 -32 -1
-34 -5z"/>
<path d="M4515 1058 c-3 -7 -6 -24 -7 -38 -3 -22 1 -25 30 -28 33 -3 33 -3 30
35 -2 31 -7 39 -26 41 -12 2 -24 -3 -27 -10z"/>
<path d="M2183 908 c-53 -10 -58 -14 -47 -41 4 -12 20 -14 83 -10 71 5 80 4
100 -16 18 -18 27 -62 19 -88 -2 -5 -35 -8 -74 -9 -120 -1 -181 -57 -171 -157
3 -37 11 -56 34 -79 56 -55 126 -54 189 4 21 19 21 19 27 -12 6 -26 11 -30 38
-30 l31 0 -3 178 c-4 191 -10 213 -62 246 -31 20 -102 26 -164 14z m161 -234
c3 -9 6 -32 6 -53 0 -39 -20 -66 -67 -90 -63 -32 -133 7 -133 74 0 25 8 44 25
60 21 22 33 25 93 25 55 0 71 -3 76 -16z"/>
<path d="M2735 913 c-56 -12 -85 -26 -90 -44 -10 -31 -28 -22 -23 12 4 28 3
30 -26 27 l-30 -3 3 -210 c1 -115 6 -214 11 -219 5 -5 16 -6 24 -3 13 5 16 34
18 174 l3 167 34 23 c58 39 138 25 142 -25 1 -9 4 -89 8 -177 l6 -160 25 0 25
0 0 170 c-1 184 -10 234 -48 253 -31 15 -59 20 -82 15z"/>
<path d="M3141 910 c-69 -17 -122 -85 -136 -175 -13 -88 37 -220 95 -250 40
-21 109 -19 147 4 l31 20 6 -25 c10 -37 -4 -96 -27 -121 -11 -12 -38 -30 -61
-38 -37 -14 -46 -14 -83 -1 -37 13 -43 13 -54 -1 -11 -13 -10 -18 6 -29 53
-39 149 -37 204 4 74 55 84 103 79 407 l-3 200 -32 3 c-30 3 -33 1 -33 -23 l0
-26 -22 25 c-26 29 -67 39 -117 26z m118 -76 l31 -26 0 -118 0 -118 -31 -26
c-39 -33 -104 -36 -142 -6 -28 22 -57 96 -57 145 0 54 29 133 57 154 38 31
103 28 142 -5z"/>
<path d="M4165 916 c-5 -3 -27 -7 -48 -11 -32 -5 -38 -10 -35 -28 3 -21 7 -22
81 -18 71 3 81 1 103 -20 17 -16 24 -33 24 -61 l0 -38 -79 0 c-65 0 -84 -4
-112 -23 -57 -38 -77 -110 -49 -177 31 -74 145 -96 202 -40 16 17 31 30 33 30
2 0 5 -12 7 -27 3 -24 8 -28 33 -28 l30 0 -3 90 c-2 50 -5 131 -6 182 -4 102
-18 137 -63 154 -30 11 -103 20 -118 15z m125 -285 c0 -55 -2 -61 -30 -81 -79
-56 -160 -28 -160 56 0 63 31 84 121 84 l69 0 0 -59z"/>
<path d="M4512 688 l3 -213 28 -3 27 -3 -2 213 -3 213 -28 3 -27 3 2 -213z"/>
<path d="M44 697 c-11 -7 -14 -49 -14 -237 0 -218 1 -230 20 -240 13 -7 176
-10 481 -10 424 1 463 2 475 18 10 13 13 71 14 232 0 118 -4 221 -8 227 -6 10
-120 13 -481 15 -260 2 -479 -1 -487 -5z m76 -183 l0 -44 50 0 50 0 0 44 c0
35 4 45 19 49 27 7 31 -9 31 -118 0 -65 -4 -96 -13 -104 -20 -16 -37 6 -37 46
0 33 0 33 -50 33 -50 0 -50 0 -50 -33 0 -37 -15 -58 -36 -50 -11 4 -14 29 -14
103 0 114 4 130 31 123 15 -4 19 -14 19 -49z m380 41 c17 -21 3 -35 -36 -35
l-34 0 0 -83 c0 -87 -11 -117 -37 -96 -9 8 -13 38 -13 95 l0 84 -34 0 c-34 0
-47 13 -38 38 7 19 176 17 192 -3z m106 -27 c48 -71 51 -72 71 -41 10 15 21
33 26 38 4 6 13 18 20 28 8 12 19 16 30 11 15 -5 17 -21 17 -114 0 -82 -3
-109 -14 -113 -24 -9 -36 15 -36 72 l0 55 -28 -32 c-16 -18 -33 -32 -38 -32
-5 0 -21 14 -36 32 l-27 33 -1 -55 c0 -63 -10 -83 -33 -74 -14 5 -17 22 -17
113 0 59 3 111 7 114 15 15 32 5 59 -35z m264 -65 l0 -83 56 0 c52 0 55 -1 52
-22 -3 -21 -9 -23 -66 -26 -38 -2 -69 2 -78 9 -10 8 -14 37 -14 110 0 83 3
100 17 108 27 14 33 -4 33 -96z"/>
</g>
</svg>
